<?xml version="1.0" encoding="utf-8"?>
<svg width="1920" height="741" viewBox="0 0 1920 741" fill="none" xmlns="http://www.w3.org/2000/svg">
<circle cx="425.765" cy="349.431" r="49.9798" stroke="#F23849" stroke-width="5"/>
<circle cx="1227.27" cy="592.747" r="28.5108" stroke="#FCBD56" stroke-width="5"/>
<g filter="url(#filter0_d)">
<rect x="773.613" y="679.815" width="8.50502" height="124.173" transform="rotate(75.1708 773.613 679.815)" fill="#F23849"/>
</g>
<rect width="3.61206" height="52.7361" transform="matrix(0.866025 -0.5 -0.5 -0.866025 468.088 624.297)" fill="#F23849"/>
<rect x="1555.19" y="54.1357" width="0.829775" height="12.1147" transform="rotate(-30 1555.19 54.1357)" fill="#F23849"/>
<path d="M1537.99 633.144L1539.68 642.125L1531.06 639.091L1537.99 633.144Z" fill="#F23849"/>
<path d="M1487.4 494.664L1465.22 533.074L1443.05 494.664L1487.4 494.664Z" stroke="#F23849" stroke-width="6"/>
<circle r="5.36725" transform="matrix(1 0 0 -1 605.27 635.088)" fill="#F23849"/>
<path d="M166.606 593.398L177.254 610.463L157.152 611.152L166.606 593.398Z" fill="#FCBD56"/>
<g filter="url(#filter1_d)">
<path d="M1.38814 376.205L31.6577 343.787L44.5978 386.211L1.38814 376.205Z" stroke="#F23849" stroke-width="6"/>
</g>
<circle cx="2001.57" cy="165.706" r="91.5856" transform="rotate(-103.799 2001.57 165.706)" stroke="#FCBD56" stroke-width="11"/>
<path d="M1636.72 465.16L1671.94 465.899L1654.97 435.03L1636.72 465.16Z" fill="#FCBD56"/>
<defs>
<filter id="filter0_d" x="647.576" y="677.815" width="134.214" height="52.0025" filterUnits="userSpaceOnUse" color-interpolation-filters="sRGB">
<feFlood flood-opacity="0" result="BackgroundImageFix"/>
<feColorMatrix in="SourceAlpha" type="matrix" values="0 0 0 0 0 0 0 0 0 0 0 0 0 0 0 0 0 0 127 0"/>
<feOffset dy="4"/>
<feGaussianBlur stdDeviation="3"/>
<feColorMatrix type="matrix" values="0 0 0 0 0.94902 0 0 0 0 0.219608 0 0 0 0 0.286275 0 0 0 0.3 0"/>
<feBlend mode="normal" in2="BackgroundImageFix" result="effect1_dropShadow"/>
<feBlend mode="normal" in="SourceGraphic" in2="effect1_dropShadow" result="shape"/>
</filter>
<filter id="filter1_d" x="-10.3516" y="329.767" width="76.029" height="70.5381" filterUnits="userSpaceOnUse" color-interpolation-filters="sRGB">
<feFlood flood-opacity="0" result="BackgroundImageFix"/>
<feColorMatrix in="SourceAlpha" type="matrix" values="0 0 0 0 0 0 0 0 0 0 0 0 0 0 0 0 0 0 127 0"/>
<feOffset dy="4"/>
<feGaussianBlur stdDeviation="3"/>
<feColorMatrix type="matrix" values="0 0 0 0 0.94902 0 0 0 0 0.219608 0 0 0 0 0.286275 0 0 0 0.3 0"/>
<feBlend mode="normal" in2="BackgroundImageFix" result="effect1_dropShadow"/>
<feBlend mode="normal" in="SourceGraphic" in2="effect1_dropShadow" result="shape"/>
</filter>
</defs>
</svg>
